<?xml version="1.0" encoding="UTF-8"?>
<svg xmlns="http://www.w3.org/2000/svg" width="32" height="32" viewBox="0 0 32 32" fill="none">
  <path d="M16.8333 16.5938H18.9167L19.75 13.3438H16.8333V11.7188C16.8333 10.8819 16.8333 10.0938 18.5 10.0938H19.75V7.36375C19.4783 7.32881 18.4525 7.25 17.3692 7.25C15.1067 7.25 13.5 8.59631 13.5 11.0687V13.3438H11V16.5938H13.5V23.5H16.8333V16.5938Z" fill="#003028"></path>
  <path d="M1 22.6667V9.33333C1 7.1232 1.87797 5.00358 3.44078 3.44078C5.00358 1.87797 7.1232 1 9.33333 1H22.6667C24.8768 1 26.9964 1.87797 28.5592 3.44078C30.122 5.00358 31 7.1232 31 9.33333V22.6667C31 24.8768 30.122 26.9964 28.5592 28.5592C26.9964 30.122 24.8768 31 22.6667 31H9.33333C7.1232 31 5.00358 30.122 3.44078 28.5592C1.87797 26.9964 1 24.8768 1 22.6667Z" stroke="#003028" stroke-width="1.5"></path>
</svg>
