<?xml version="1.0" encoding="UTF-8"?>
<svg xmlns="http://www.w3.org/2000/svg" width="32" height="32" viewBox="0 0 32 32" fill="none">
  <path d="M16.0007 22.6668C17.7688 22.6668 19.4645 21.9645 20.7147 20.7142C21.9649 19.464 22.6673 17.7683 22.6673 16.0002C22.6673 14.2321 21.9649 12.5364 20.7147 11.2861C19.4645 10.0359 17.7688 9.3335 16.0007 9.3335C14.2325 9.3335 12.5368 10.0359 11.2866 11.2861C10.0364 12.5364 9.33398 14.2321 9.33398 16.0002C9.33398 17.7683 10.0364 19.464 11.2866 20.7142C12.5368 21.9645 14.2325 22.6668 16.0007 22.6668Z" stroke="#003028" stroke-width="1.5" stroke-linecap="round" stroke-linejoin="round"></path>
  <path d="M1 22.6667V9.33333C1 7.1232 1.87797 5.00358 3.44078 3.44078C5.00358 1.87797 7.1232 1 9.33333 1H22.6667C24.8768 1 26.9964 1.87797 28.5592 3.44078C30.122 5.00358 31 7.1232 31 9.33333V22.6667C31 24.8768 30.122 26.9964 28.5592 28.5592C26.9964 30.122 24.8768 31 22.6667 31H9.33333C7.1232 31 5.00358 30.122 3.44078 28.5592C1.87797 26.9964 1 24.8768 1 22.6667Z" stroke="#003028" stroke-width="1.5"></path>
  <path d="M25.166 6.84988L25.1827 6.83154" stroke="#003028" stroke-width="1.5" stroke-linecap="round" stroke-linejoin="round"></path>
</svg>
