<?xml version="1.0" encoding="UTF-8"?>
<svg xmlns="http://www.w3.org/2000/svg" width="32" height="32" viewBox="0 0 32 32" fill="none">
  <path d="M20.2441 14.8744C20.2597 12.9009 18.657 11.0913 16.6715 10.8413L16.5413 10.8215C16.4417 10.8014 16.3407 10.7899 16.2392 10.7871C15.8317 10.7871 15.7237 11.0861 15.695 11.2646C15.6788 11.3388 15.6773 11.4155 15.6907 11.4902C15.7041 11.565 15.7322 11.6362 15.7731 11.6998C15.9085 11.8916 16.1455 11.9247 16.3356 11.9538C16.3916 11.9617 16.4449 11.9683 16.4879 11.9802C18.2729 12.3969 18.8744 13.0543 19.1673 14.9101C19.1752 14.9564 19.1778 15.012 19.1804 15.0715C19.1934 15.2924 19.2207 15.754 19.6946 15.754C19.7337 15.754 19.7754 15.7514 19.8196 15.7435C20.261 15.6734 20.2467 15.2514 20.2402 15.049C20.2369 15.0001 20.2369 14.9511 20.2402 14.9022C20.2416 14.8934 20.2425 14.8846 20.2428 14.8757L20.2441 14.8744Z" fill="#003028"></path>
  <path d="M16.1251 10.1164C16.1771 10.1204 16.2292 10.1243 16.2696 10.131C19.199 10.6045 20.5478 12.0595 20.9215 15.1574C20.928 15.2103 20.928 15.2738 20.9293 15.3426C20.9332 15.5847 20.941 16.0873 21.4566 16.0979H21.4722C21.543 16.1017 21.6138 16.0901 21.6798 16.0639C21.7458 16.0376 21.8055 15.9974 21.855 15.9458C22.0151 15.7698 22.0047 15.5093 21.9956 15.2976C21.993 15.2474 21.9904 15.1984 21.9917 15.1561C22.0281 11.9881 19.4138 9.11508 16.3959 9.00926L16.3594 9.01058C16.3478 9.01232 16.336 9.01321 16.3243 9.01323C16.2943 9.01323 16.2565 9.01058 16.2175 9.00794C16.1655 9.00311 16.1134 9.00046 16.0613 9C15.5808 9 15.4897 9.35714 15.478 9.57143C15.4519 10.0648 15.9063 10.1005 16.1251 10.1164ZM20.7796 19.1601C20.7169 19.1102 20.6548 19.0594 20.5934 19.0079C20.2731 18.7381 19.932 18.4894 19.6039 18.2487C19.5352 18.1985 19.4667 18.1483 19.3982 18.0979C18.9763 17.7884 18.5975 17.6362 18.2394 17.6362C17.7577 17.6362 17.3372 17.9167 16.9896 18.4683C16.8359 18.7116 16.6484 18.8307 16.4193 18.8307C16.2593 18.8249 16.1025 18.7838 15.9597 18.7103C14.5992 18.0622 13.6266 17.0701 13.0707 15.7606C12.8024 15.1257 12.8884 14.713 13.3623 14.3757C13.6305 14.1852 14.1304 13.8294 14.0953 13.1481C14.0562 12.3743 12.4275 10.0463 11.7414 9.78175C11.4487 9.66952 11.1259 9.66858 10.8326 9.7791C10.0449 10.0569 9.47855 10.5463 9.19602 11.1905C8.92261 11.8148 8.93563 12.5463 9.23248 13.3082C10.0879 15.5119 11.2896 17.4325 12.8077 19.0172C14.2919 20.5688 16.1172 21.8386 18.2316 22.7937C18.4217 22.8796 18.6222 22.9259 18.768 22.9603L18.8917 22.9921C18.9087 22.997 18.9262 22.9997 18.9438 23H18.9607C19.9554 23 21.1493 22.0476 21.5165 20.9603C21.8381 20.0079 21.2509 19.5384 20.7796 19.1614V19.1601ZM16.5651 12.6336C16.3959 12.6376 16.0404 12.6468 15.9154 13.0251C15.8581 13.2024 15.8647 13.3558 15.9363 13.4815C16.0417 13.6667 16.2448 13.7235 16.4284 13.754C17.095 13.8664 17.4387 14.254 17.5064 14.9709C17.539 15.3069 17.7538 15.5397 18.0298 15.5397C18.0507 15.5401 18.0716 15.5392 18.0923 15.537C18.4243 15.4947 18.5845 15.2394 18.5701 14.7765C18.5753 14.2923 18.3345 13.7447 17.9244 13.3082C17.5129 12.869 17.0169 12.6217 16.5651 12.6336Z" fill="#003028"></path>
  <path d="M1 22.6667V9.33333C1 7.1232 1.87797 5.00358 3.44078 3.44078C5.00358 1.87797 7.1232 1 9.33333 1H22.6667C24.8768 1 26.9964 1.87797 28.5592 3.44078C30.122 5.00358 31 7.1232 31 9.33333V22.6667C31 24.8768 30.122 26.9964 28.5592 28.5592C26.9964 30.122 24.8768 31 22.6667 31H9.33333C7.1232 31 5.00358 30.122 3.44078 28.5592C1.87797 26.9964 1 24.8768 1 22.6667Z" stroke="#003028" stroke-width="1.5"></path>
</svg>
