<svg xmlns="http://www.w3.org/2000/svg" viewBox="0 0 24.082 24.082">
  <defs>
    <style>
      .cls-1 {
        fill: #fff;
      }
    </style>
  </defs>
  <path id="search" class="cls-1" d="M23.753-11.538a1.089,1.089,0,0,1,.329.8,1.089,1.089,0,0,1-.329.8L22.436-8.622a1.089,1.089,0,0,1-.8.329,1.089,1.089,0,0,1-.8-.329l-4.7-4.7a1.089,1.089,0,0,1-.329-.8v-.753a9.479,9.479,0,0,1-6.021,2.07,9.5,9.5,0,0,1-4.915-1.317,9.884,9.884,0,0,1-3.551-3.551A9.5,9.5,0,0,1,0-22.592a9.5,9.5,0,0,1,1.317-4.915,9.884,9.884,0,0,1,3.551-3.551,9.5,9.5,0,0,1,4.915-1.317A9.5,9.5,0,0,1,14.7-31.058a9.884,9.884,0,0,1,3.551,3.551,9.5,9.5,0,0,1,1.317,4.915,9.479,9.479,0,0,1-2.07,6.021h.753a1.089,1.089,0,0,1,.8.329ZM9.783-16.571a5.97,5.97,0,0,0,3.034-.8A5.857,5.857,0,0,0,15-19.558a5.97,5.97,0,0,0,.8-3.034,5.97,5.97,0,0,0-.8-3.034,5.857,5.857,0,0,0-2.187-2.187,5.97,5.97,0,0,0-3.034-.8,5.97,5.97,0,0,0-3.034.8,5.857,5.857,0,0,0-2.187,2.187,5.97,5.97,0,0,0-.8,3.034,5.97,5.97,0,0,0,.8,3.034A5.857,5.857,0,0,0,6.75-17.371,5.97,5.97,0,0,0,9.783-16.571Z" transform="translate(0 32.375)"/>
</svg>
