<?xml version="1.0" encoding="utf-8"?>
<!-- Generator: Adobe Illustrator 22.0.0, SVG Export Plug-In . SVG Version: 6.00 Build 0)  -->
<svg version="1.1" id="Шар_1" xmlns="http://www.w3.org/2000/svg" xmlns:xlink="http://www.w3.org/1999/xlink" x="0px" y="0px"
	 width="20px" height="20.832px" viewBox="0 0 20 20.832" style="enable-background:new 0 0 20 20.832;" xml:space="preserve">
<style type="text/css">
	.st0{fill:#FFFFFF;}
</style>
<path class="st0" d="M19.354,8.836l-8.19-8.19c-0.862-0.862-2.259-0.862-3.121,0c-0.862,0.862-0.862,2.259,0,3.121l4.403,4.403
	H2.207C0.988,8.17,0,9.159,0,10.378s0.988,2.207,2.207,2.207h10.276l-4.48,4.48c-0.862,0.862-0.862,2.259,0,3.121
	c0.431,0.431,0.996,0.646,1.561,0.646s1.13-0.216,1.561-0.646l8.228-8.228C20.215,11.096,20.215,9.698,19.354,8.836z"/>
</svg>
