<svg xmlns="http://www.w3.org/2000/svg" viewBox="0 0 21 24">
  <defs>
    <style>
      .cls-1 {
        fill: #fff;
      }
    </style>
  </defs>
  <path id="blog-calendar" class="cls-1" d="M6.938-7.5a.542.542,0,0,0,.4-.164.542.542,0,0,0,.164-.4V-9.937a.542.542,0,0,0-.164-.4.542.542,0,0,0-.4-.164H5.063a.542.542,0,0,0-.4.164.542.542,0,0,0-.164.4v1.875a.542.542,0,0,0,.164.4.542.542,0,0,0,.4.164ZM12-8.062a.542.542,0,0,1-.164.4.542.542,0,0,1-.4.164H9.563a.542.542,0,0,1-.4-.164A.542.542,0,0,1,9-8.062V-9.937a.542.542,0,0,1,.164-.4.542.542,0,0,1,.4-.164h1.875a.542.542,0,0,1,.4.164.542.542,0,0,1,.164.4Zm4.5,0a.542.542,0,0,1-.164.4.542.542,0,0,1-.4.164H14.063a.542.542,0,0,1-.4-.164.542.542,0,0,1-.164-.4V-9.937a.542.542,0,0,1,.164-.4.542.542,0,0,1,.4-.164h1.875a.542.542,0,0,1,.4.164.542.542,0,0,1,.164.4ZM12-3.562a.542.542,0,0,1-.164.4.542.542,0,0,1-.4.164H9.563a.542.542,0,0,1-.4-.164A.542.542,0,0,1,9-3.562V-5.437a.542.542,0,0,1,.164-.4A.542.542,0,0,1,9.563-6h1.875a.542.542,0,0,1,.4.164.542.542,0,0,1,.164.4Zm-4.5,0a.542.542,0,0,1-.164.4.542.542,0,0,1-.4.164H5.063a.542.542,0,0,1-.4-.164.542.542,0,0,1-.164-.4V-5.437a.542.542,0,0,1,.164-.4A.542.542,0,0,1,5.063-6H6.938a.542.542,0,0,1,.4.164.542.542,0,0,1,.164.4Zm9,0a.542.542,0,0,1-.164.4.542.542,0,0,1-.4.164H14.063a.542.542,0,0,1-.4-.164.542.542,0,0,1-.164-.4V-5.437a.542.542,0,0,1,.164-.4.542.542,0,0,1,.4-.164h1.875a.542.542,0,0,1,.4.164.542.542,0,0,1,.164.4ZM21-15.75a2.17,2.17,0,0,0-.656-1.594A2.17,2.17,0,0,0,18.75-18H16.5v-2.437a.542.542,0,0,0-.164-.4.542.542,0,0,0-.4-.164H14.063a.542.542,0,0,0-.4.164.542.542,0,0,0-.164.4V-18h-6v-2.437a.542.542,0,0,0-.164-.4.542.542,0,0,0-.4-.164H5.063a.542.542,0,0,0-.4.164.542.542,0,0,0-.164.4V-18H2.25a2.17,2.17,0,0,0-1.594.656A2.17,2.17,0,0,0,0-15.75V.75A2.17,2.17,0,0,0,.656,2.344,2.17,2.17,0,0,0,2.25,3h16.5a2.17,2.17,0,0,0,1.594-.656A2.17,2.17,0,0,0,21,.75ZM18.75.469a.27.27,0,0,1-.094.188.27.27,0,0,1-.187.094H2.531A.27.27,0,0,1,2.344.656.27.27,0,0,1,2.25.469V-13.5h16.5Z" transform="translate(0 21)"/>
</svg>
