<?xml version="1.0" encoding="utf-8"?>
<!-- Generator: Adobe Illustrator 22.0.0, SVG Export Plug-In . SVG Version: 6.00 Build 0)  -->
<svg version="1.1" id="Capa_1" xmlns="http://www.w3.org/2000/svg" xmlns:xlink="http://www.w3.org/1999/xlink" x="0px" y="0px"
	 width="171.933px" height="41.686px" viewBox="0 0 171.933 41.686" style="enable-background:new 0 0 171.933 41.686;"
	 xml:space="preserve">
<style type="text/css">
	.st0{fill:#333333;}
	.st1{fill:#434C6D;}
	.st2{fill:#556080;}
	.st3{fill:#7383BF;}
</style>
<g>
	<path class="st0" d="M50.644,29.147V11.463h3.751v14.588h7.173v3.097H50.644z"/>
	<path class="st0" d="M76.64,22.361c0,2.202-0.581,3.923-1.742,5.166c-1.16,1.242-2.778,1.862-4.85,1.862
		c-1.299,0-2.444-0.284-3.436-0.852c-0.992-0.569-1.753-1.385-2.287-2.451c-0.532-1.064-0.798-2.306-0.798-3.725
		c0-2.209,0.577-3.927,1.73-5.152c1.153-1.226,2.774-1.839,4.862-1.839c1.299,0,2.444,0.282,3.436,0.847s1.753,1.375,2.287,2.431
		C76.374,19.704,76.64,20.942,76.64,22.361z M67.289,22.361c0,1.339,0.22,2.352,0.659,3.036c0.44,0.687,1.156,1.029,2.147,1.029
		c0.984,0,1.692-0.339,2.124-1.022c0.432-0.681,0.647-1.695,0.647-3.042c0-1.338-0.218-2.342-0.654-3.012
		c-0.434-0.669-1.148-1.004-2.14-1.004c-0.984,0-1.694,0.333-2.129,0.998C67.507,20.009,67.289,21.015,67.289,22.361z"/>
	<path class="st0" d="M91.458,15.624v1.875l-2.117,0.545c0.387,0.605,0.581,1.282,0.581,2.032c0,1.451-0.506,2.583-1.518,3.393
		s-2.418,1.214-4.216,1.214l-0.665-0.035l-0.544-0.06c-0.379,0.29-0.569,0.612-0.569,0.966c0,0.532,0.677,0.799,2.033,0.799h2.297
		c1.485,0,2.615,0.319,3.394,0.955c0.778,0.638,1.167,1.573,1.167,2.806c0,1.581-0.659,2.806-1.978,3.677
		c-1.318,0.871-3.211,1.307-5.679,1.307c-1.886,0-3.329-0.328-4.325-0.987c-0.996-0.657-1.494-1.578-1.494-2.764
		c0-0.814,0.255-1.495,0.763-2.044c0.508-0.548,1.254-0.939,2.238-1.174c-0.379-0.161-0.71-0.425-0.992-0.791
		c-0.282-0.368-0.423-0.757-0.423-1.168c0-0.516,0.149-0.946,0.448-1.288c0.299-0.343,0.73-0.68,1.295-1.01
		c-0.71-0.307-1.273-0.799-1.688-1.476c-0.415-0.678-0.623-1.476-0.623-2.395c0-1.476,0.48-2.617,1.44-3.424
		c0.959-0.806,2.33-1.209,4.113-1.209c0.379,0,0.828,0.034,1.349,0.102c0.52,0.069,0.852,0.119,0.997,0.151H91.458z M81.019,31.058
		c0,0.509,0.243,0.908,0.731,1.198c0.489,0.29,1.171,0.436,2.05,0.436c1.323,0,2.358-0.182,3.109-0.544
		c0.75-0.364,1.125-0.859,1.125-1.489c0-0.508-0.223-0.859-0.665-1.052c-0.444-0.194-1.129-0.29-2.057-0.29h-1.911
		c-0.677,0-1.244,0.159-1.7,0.478C81.247,30.114,81.019,30.534,81.019,31.058z M82.361,20.051c0,0.734,0.168,1.315,0.502,1.742
		c0.335,0.428,0.845,0.64,1.531,0.64c0.693,0,1.201-0.212,1.524-0.64c0.323-0.427,0.484-1.008,0.484-1.742
		c0-1.629-0.67-2.443-2.008-2.443C83.038,17.608,82.361,18.422,82.361,20.051z"/>
	<path class="st0" d="M105.972,22.361c0,2.202-0.581,3.923-1.742,5.166c-1.16,1.242-2.778,1.862-4.85,1.862
		c-1.299,0-2.444-0.284-3.436-0.852c-0.992-0.569-1.753-1.385-2.287-2.451c-0.532-1.064-0.798-2.306-0.798-3.725
		c0-2.209,0.577-3.927,1.73-5.152c1.153-1.226,2.774-1.839,4.862-1.839c1.299,0,2.444,0.282,3.436,0.847s1.753,1.375,2.287,2.431
		C105.706,19.704,105.972,20.942,105.972,22.361z M96.621,22.361c0,1.339,0.22,2.352,0.659,3.036
		c0.44,0.687,1.156,1.029,2.147,1.029c0.984,0,1.692-0.339,2.124-1.022c0.432-0.681,0.647-1.695,0.647-3.042
		c0-1.338-0.218-2.342-0.654-3.012c-0.434-0.669-1.148-1.004-2.14-1.004c-0.984,0-1.694,0.333-2.129,0.998
		C96.84,20.009,96.621,21.015,96.621,22.361z"/>
	<path class="st0" d="M130.238,29.147H126.5v-7.633h-7.003v7.633h-3.751V11.463h3.751v6.931h7.003v-6.931h3.737V29.147z"/>
	<path class="st0" d="M140.532,29.389c-2.178,0-3.88-0.6-5.105-1.802c-1.225-1.202-1.839-2.904-1.839-5.105
		c0-2.265,0.567-4.017,1.7-5.256c1.132-1.238,2.699-1.856,4.699-1.856c1.911,0,3.399,0.544,4.463,1.632
		c1.064,1.089,1.597,2.593,1.597,4.512v1.79h-8.721c0.039,1.049,0.35,1.867,0.931,2.456c0.581,0.589,1.395,0.883,2.444,0.883
		c0.814,0,1.584-0.085,2.31-0.254c0.726-0.17,1.485-0.44,2.274-0.811v2.855c-0.645,0.323-1.335,0.563-2.068,0.719
		C142.483,29.31,141.587,29.389,140.532,29.389z M140.012,17.994c-0.783,0-1.396,0.248-1.839,0.744
		c-0.444,0.496-0.699,1.2-0.763,2.111h5.177c-0.016-0.911-0.254-1.615-0.714-2.111C141.415,18.243,140.794,17.994,140.012,17.994z"
		/>
	<path class="st0" d="M156.596,15.37c0.499,0,0.915,0.036,1.246,0.109l-0.278,3.46c-0.299-0.081-0.662-0.121-1.088-0.121
		c-1.178,0-2.095,0.302-2.752,0.907c-0.658,0.605-0.987,1.451-0.987,2.54v6.883h-3.69V15.624h2.794l0.546,2.274h0.18
		c0.419-0.758,0.987-1.369,1.7-1.833C154.981,15.601,155.757,15.37,156.596,15.37z"/>
	<path class="st0" d="M166.417,29.389c-2.178,0-3.88-0.6-5.105-1.802c-1.225-1.202-1.839-2.904-1.839-5.105
		c0-2.265,0.567-4.017,1.7-5.256c1.132-1.238,2.699-1.856,4.699-1.856c1.911,0,3.399,0.544,4.463,1.632
		c1.064,1.089,1.597,2.593,1.597,4.512v1.79h-8.721c0.039,1.049,0.35,1.867,0.931,2.456c0.581,0.589,1.395,0.883,2.444,0.883
		c0.814,0,1.584-0.085,2.31-0.254c0.726-0.17,1.485-0.44,2.274-0.811v2.855c-0.645,0.323-1.335,0.563-2.068,0.719
		C168.369,29.31,167.473,29.389,166.417,29.389z M165.898,17.994c-0.783,0-1.396,0.248-1.839,0.744
		c-0.444,0.496-0.699,1.2-0.763,2.111h5.177c-0.016-0.911-0.254-1.615-0.714-2.111C167.301,18.243,166.679,17.994,165.898,17.994z"
		/>
</g>
<g>
	<polygon class="st1" points="18.681,41.686 0,32.346 0,9.354 18.681,18.695 	"/>
	<polygon class="st2" points="18.681,41.686 37.362,32.346 37.362,9.354 18.681,18.695 	"/>
	<polygon class="st3" points="0,9.354 17.962,0.014 37.362,9.354 18.681,18.695 	"/>
</g>
</svg>
