<?xml version="1.0" encoding="utf-8"?>
<!-- Generator: Adobe Illustrator 22.0.0, SVG Export Plug-In . SVG Version: 6.00 Build 0)  -->
<svg version="1.1" id="Capa_1" xmlns="http://www.w3.org/2000/svg" xmlns:xlink="http://www.w3.org/1999/xlink" x="0px" y="0px"
	 width="80.5px" height="20.95px" viewBox="0 0 80.5 20.95" style="enable-background:new 0 0 80.5 20.95;" xml:space="preserve">
<style type="text/css">
	.st0{fill:#666C76;}
</style>
<g>
	<g>
		<path class="st0" d="M2.861,1.761C1.948,1.662,0.985,1.612,0,1.612V0c1.074,0,2.126,0.055,3.128,0.164L2.861,1.761z"/>
	</g>
	<g>
		<path class="st0" d="M18.691,8.064l-1.518,1.049c0.657,0.617,1.303,1.245,1.948,1.873c0.643,0.624,1.285,1.249,1.938,1.863
			l1.519-1.049c-0.646-0.607-1.282-1.225-1.917-1.843C20.008,9.323,19.355,8.688,18.691,8.064z"/>
		<path class="st0" d="M36.859,19.181l-0.272,1.597c1.027,0.114,2.105,0.172,3.204,0.172c1.052,0,2.086-0.053,3.075-0.158
			l-0.261-1.597C40.76,19.39,38.695,19.385,36.859,19.181z"/>
		<path class="st0" d="M8.331,3.076c1.629,0.637,3.184,1.49,4.752,2.607l1.325-1.207c-1.707-1.216-3.409-2.149-5.204-2.851
			L8.331,3.076z"/>
		<path class="st0" d="M25.337,16.441c1.704,1.219,3.402,2.155,5.194,2.862l0.879-1.448c-1.626-0.641-3.178-1.498-4.745-2.619
			L25.337,16.441z"/>
		<path class="st0" d="M65.07,4.551l1.332,1.202c1.564-1.126,3.112-1.986,4.733-2.632l-0.887-1.445
			C68.464,2.387,66.771,3.328,65.07,4.551z"/>
		<path class="st0" d="M80.5,0.023c-1.42-0.042-2.868,0.005-4.211,0.158l0.281,1.596c1.249-0.143,2.605-0.186,3.93-0.143V0.023z"/>
		<path class="st0" d="M48.06,17.899l0.866,1.453c1.801-0.697,3.506-1.624,5.214-2.836l-1.321-1.209
			C51.25,16.419,49.693,17.267,48.06,17.899z"/>
		<path class="st0" d="M58.914,9.964c-0.662,0.644-1.324,1.287-1.998,1.919l1.517,1.05c0.682-0.639,1.351-1.29,2.021-1.94
			c0.62-0.602,1.239-1.204,1.868-1.797l-1.52-1.047C60.166,8.747,59.54,9.356,58.914,9.964z"/>
	</g>
</g>
</svg>
